<mxfile host="65bd71144e" scale="1" border="30">
    <diagram id="xQnAb_9Tro_uTrc6JzYf" name="PÃ¡gina-1">
        <mxGraphModel dx="820" dy="470" grid="1" gridSize="10" guides="1" tooltips="1" connect="1" arrows="1" fold="1" page="1" pageScale="1" pageWidth="827" pageHeight="1169" background="#000000" math="0" shadow="0">
            <root>
                <mxCell id="0"/>
                <mxCell id="1" parent="0"/>
                <mxCell id="2" value="" style="rounded=0;whiteSpace=wrap;html=1;fontColor=#FAFAFA;strokeColor=#FFFFFF;glass=0;sketch=0;shadow=0;fillColor=#000000;" vertex="1" parent="1">
                    <mxGeometry x="110" y="110" width="660" height="500" as="geometry"/>
                </mxCell>
                <mxCell id="3" value="&lt;font style=&quot;font-size: 15px;&quot; color=&quot;#00ff00&quot;&gt;Server.js&lt;/font&gt;" style="rounded=0;whiteSpace=wrap;html=1;strokeColor=#009900;strokeWidth=3;shadow=1;sketch=1;fontSize=15;fillColor=#000000;" vertex="1" parent="1">
                    <mxGeometry x="140" y="145" width="110" height="405" as="geometry"/>
                </mxCell>
                <mxCell id="4" value="" style="rounded=0;whiteSpace=wrap;html=1;strokeColor=#FFFF00;shadow=1;strokeWidth=3;sketch=1;fillColor=#000000;" vertex="1" parent="1">
                    <mxGeometry x="300" y="145" width="160" height="405" as="geometry"/>
                </mxCell>
                <mxCell id="5" value="" style="rounded=0;whiteSpace=wrap;html=1;strokeColor=#0000CC;strokeWidth=3;shadow=1;sketch=1;fillColor=#000000;" vertex="1" parent="1">
                    <mxGeometry x="500" y="145" width="250" height="405" as="geometry"/>
                </mxCell>
                <mxCell id="11" value="" style="whiteSpace=wrap;html=1;aspect=fixed;strokeColor=#CCCC00;fillColor=#000000;" vertex="1" parent="1">
                    <mxGeometry x="315" y="180" width="130" height="130" as="geometry"/>
                </mxCell>
                <mxCell id="6" value="Routes" style="text;strokeColor=none;fillColor=none;html=1;fontSize=15;fontStyle=1;verticalAlign=middle;align=center;fontColor=#FFFF00;" vertex="1" parent="1">
                    <mxGeometry x="330" y="220" width="100" height="40" as="geometry"/>
                </mxCell>
                <mxCell id="12" value="" style="whiteSpace=wrap;html=1;aspect=fixed;strokeColor=#CC0066;fillColor=#000000;" vertex="1" parent="1">
                    <mxGeometry x="315" y="380" width="130" height="130" as="geometry"/>
                </mxCell>
                <mxCell id="7" value="Response" style="text;strokeColor=none;fillColor=none;html=1;fontSize=15;fontStyle=1;verticalAlign=middle;align=center;fontColor=#FF00FF;" vertex="1" parent="1">
                    <mxGeometry x="330" y="425" width="100" height="40" as="geometry"/>
                </mxCell>
                <mxCell id="13" value="" style="rounded=0;whiteSpace=wrap;html=1;fontSize=20;fillColor=#000000;strokeColor=#006633;fontColor=#ffffff;" vertex="1" parent="1">
                    <mxGeometry x="515" y="170" width="220" height="90" as="geometry"/>
                </mxCell>
                <mxCell id="14" value="" style="rounded=0;whiteSpace=wrap;html=1;fontSize=20;fillColor=#000000;strokeColor=#006633;fontColor=#ffffff;" vertex="1" parent="1">
                    <mxGeometry x="512.5" y="290" width="220" height="90" as="geometry"/>
                </mxCell>
                <mxCell id="15" value="" style="rounded=0;whiteSpace=wrap;html=1;fontSize=20;fillColor=#000000;strokeColor=#006633;fontColor=#ffffff;" vertex="1" parent="1">
                    <mxGeometry x="512.5" y="410" width="220" height="90" as="geometry"/>
                </mxCell>
                <mxCell id="22" value="Message" style="text;html=1;strokeColor=none;fillColor=none;align=center;verticalAlign=middle;whiteSpace=wrap;rounded=0;fontSize=15;fontColor=#FFFFFF;labelBackgroundColor=#000000;" vertex="1" parent="1">
                    <mxGeometry x="570" y="260" width="100" height="30" as="geometry"/>
                </mxCell>
                <mxCell id="23" value="Component - N" style="text;html=1;strokeColor=none;fillColor=none;align=center;verticalAlign=middle;whiteSpace=wrap;rounded=0;fontSize=15;fontColor=#FFFFFF;labelBackgroundColor=#000000;" vertex="1" parent="1">
                    <mxGeometry x="558.75" y="500" width="137.5" height="30" as="geometry"/>
                </mxCell>
                <mxCell id="24" value="Component-2" style="text;html=1;strokeColor=none;fillColor=none;align=center;verticalAlign=middle;whiteSpace=wrap;rounded=0;fontSize=15;fontColor=#FFFFFF;labelBackgroundColor=#000000;" vertex="1" parent="1">
                    <mxGeometry x="575" y="380" width="100" height="30" as="geometry"/>
                </mxCell>
                <mxCell id="25" value="Capa de Componentes" style="text;html=1;strokeColor=none;fillColor=none;align=center;verticalAlign=middle;whiteSpace=wrap;rounded=0;fontSize=13;fontColor=#FFFFFF;labelBackgroundColor=#000000;" vertex="1" parent="1">
                    <mxGeometry x="540" y="570" width="195" height="30" as="geometry"/>
                </mxCell>
                <mxCell id="26" value="Capa de Configuracion" style="text;html=1;strokeColor=none;fillColor=none;align=center;verticalAlign=middle;whiteSpace=wrap;rounded=0;fontSize=13;fontColor=#FFFFFF;labelBackgroundColor=#000000;" vertex="1" parent="1">
                    <mxGeometry x="122.5" y="570" width="170" height="30" as="geometry"/>
                </mxCell>
                <mxCell id="27" value="Capa de Red" style="text;html=1;strokeColor=none;fillColor=none;align=center;verticalAlign=middle;whiteSpace=wrap;rounded=0;fontSize=13;fontColor=#FFFFFF;labelBackgroundColor=#000000;" vertex="1" parent="1">
                    <mxGeometry x="302.5" y="570" width="157.5" height="30" as="geometry"/>
                </mxCell>
                <mxCell id="28" value="" style="rounded=0;whiteSpace=wrap;html=1;fontSize=18;fillColor=#a20025;fontColor=#ffffff;strokeColor=#6F0000;" vertex="1" parent="1">
                    <mxGeometry x="520" y="185" width="70" height="65" as="geometry"/>
                </mxCell>
                <mxCell id="8" value="Http" style="text;strokeColor=none;fillColor=none;html=1;fontSize=15;fontStyle=1;verticalAlign=middle;align=center;" vertex="1" parent="1">
                    <mxGeometry x="520" y="195" width="65" height="40" as="geometry"/>
                </mxCell>
                <mxCell id="29" value="" style="rounded=0;whiteSpace=wrap;html=1;fontSize=18;fillColor=#60a917;fontColor=#ffffff;strokeColor=#2D7600;" vertex="1" parent="1">
                    <mxGeometry x="595" y="185" width="70" height="65" as="geometry"/>
                </mxCell>
                <mxCell id="30" value="" style="rounded=0;whiteSpace=wrap;html=1;fontSize=18;fillColor=#f0a30a;fontColor=#000000;strokeColor=#BD7000;" vertex="1" parent="1">
                    <mxGeometry x="670" y="185" width="60" height="65" as="geometry"/>
                </mxCell>
                <mxCell id="9" value="Logica" style="text;strokeColor=none;fillColor=none;html=1;fontSize=15;fontStyle=1;verticalAlign=middle;align=center;" vertex="1" parent="1">
                    <mxGeometry x="590" y="195" width="75" height="40" as="geometry"/>
                </mxCell>
                <mxCell id="10" value="BD" style="text;strokeColor=none;fillColor=none;html=1;fontSize=15;fontStyle=1;verticalAlign=middle;align=center;" vertex="1" parent="1">
                    <mxGeometry x="670" y="195" width="50" height="40" as="geometry"/>
                </mxCell>
                <mxCell id="31" value="" style="rounded=0;whiteSpace=wrap;html=1;fontSize=18;fillColor=#a20025;fontColor=#ffffff;strokeColor=#6F0000;" vertex="1" parent="1">
                    <mxGeometry x="517.5" y="302.5" width="70" height="65" as="geometry"/>
                </mxCell>
                <mxCell id="32" value="" style="rounded=0;whiteSpace=wrap;html=1;fontSize=18;fillColor=#60a917;fontColor=#ffffff;strokeColor=#2D7600;" vertex="1" parent="1">
                    <mxGeometry x="592.5" y="302.5" width="70" height="65" as="geometry"/>
                </mxCell>
                <mxCell id="33" value="" style="rounded=0;whiteSpace=wrap;html=1;fontSize=18;fillColor=#f0a30a;fontColor=#000000;strokeColor=#BD7000;" vertex="1" parent="1">
                    <mxGeometry x="667.5" y="302.5" width="60" height="65" as="geometry"/>
                </mxCell>
                <mxCell id="34" value="" style="rounded=0;whiteSpace=wrap;html=1;fontSize=18;fillColor=#a20025;fontColor=#ffffff;strokeColor=#6F0000;" vertex="1" parent="1">
                    <mxGeometry x="517.5" y="422.5" width="70" height="65" as="geometry"/>
                </mxCell>
                <mxCell id="35" value="" style="rounded=0;whiteSpace=wrap;html=1;fontSize=18;fillColor=#60a917;fontColor=#ffffff;strokeColor=#2D7600;" vertex="1" parent="1">
                    <mxGeometry x="592.5" y="422.5" width="70" height="65" as="geometry"/>
                </mxCell>
                <mxCell id="36" value="" style="rounded=0;whiteSpace=wrap;html=1;fontSize=18;fillColor=#f0a30a;fontColor=#000000;strokeColor=#BD7000;" vertex="1" parent="1">
                    <mxGeometry x="667.5" y="422.5" width="60" height="65" as="geometry"/>
                </mxCell>
                <mxCell id="16" value="Http" style="text;strokeColor=none;fillColor=none;html=1;fontSize=15;fontStyle=1;verticalAlign=middle;align=center;" vertex="1" parent="1">
                    <mxGeometry x="522.5" y="312.5" width="65" height="40" as="geometry"/>
                </mxCell>
                <mxCell id="17" value="Logica" style="text;strokeColor=none;fillColor=none;html=1;fontSize=15;fontStyle=1;verticalAlign=middle;align=center;" vertex="1" parent="1">
                    <mxGeometry x="592.5" y="312.5" width="75" height="40" as="geometry"/>
                </mxCell>
                <mxCell id="18" value="BD" style="text;strokeColor=none;fillColor=none;html=1;fontSize=15;fontStyle=1;verticalAlign=middle;align=center;" vertex="1" parent="1">
                    <mxGeometry x="672.5" y="312.5" width="50" height="40" as="geometry"/>
                </mxCell>
                <mxCell id="19" value="Http" style="text;strokeColor=none;fillColor=none;html=1;fontSize=12;fontStyle=1;verticalAlign=middle;align=center;" vertex="1" parent="1">
                    <mxGeometry x="520" y="435" width="65" height="40" as="geometry"/>
                </mxCell>
                <mxCell id="37" value="BD" style="text;strokeColor=none;fillColor=none;html=1;fontSize=15;fontStyle=1;verticalAlign=middle;align=center;" vertex="1" parent="1">
                    <mxGeometry x="672.5" y="435" width="50" height="40" as="geometry"/>
                </mxCell>
                <mxCell id="38" value="Logica" style="text;strokeColor=none;fillColor=none;html=1;fontSize=15;fontStyle=1;verticalAlign=middle;align=center;" vertex="1" parent="1">
                    <mxGeometry x="590" y="435" width="75" height="40" as="geometry"/>
                </mxCell>
            </root>
        </mxGraphModel>
    </diagram>
</mxfile>